<?xml version="1.0" encoding="UTF-8" standalone="no"?>
<!DOCTYPE svg PUBLIC "-//W3C//DTD SVG 1.1//EN" "http://www.w3.org/Graphics/SVG/1.1/DTD/svg11.dtd">
<svg width="100%" height="100%" viewBox="0 0 1921 450" version="1.1" xmlns="http://www.w3.org/2000/svg" xmlns:xlink="http://www.w3.org/1999/xlink" xml:space="preserve" xmlns:serif="http://www.serif.com/" style="fill-rule:evenodd;clip-rule:evenodd;stroke-linejoin:round;stroke-miterlimit:2;">
    <g transform="matrix(1,0,0,1,-2066,-1579)">
        <g id="GradGo-Horizontal-Logo--No-Hat----White---Blue" serif:id="GradGo Horizontal Logo (No Hat) - White &amp; Blue" transform="matrix(1,0,0,0.416667,2066.58,1579)">
            <rect x="0" y="0" width="1920" height="1080" style="fill:none;"/>
            <g transform="matrix(1.08993,0,0,1.4048,-88.2144,-210.687)">
                <g transform="matrix(45.2558,0,0,84.2694,-11949.2,-22525.5)">
                    <g id="GradClip-Logo---All-Black" serif:id="GradClip Logo - All Black">
                        <g>
                            <g>
                                <g transform="matrix(0.136455,0,0,0.136455,194.837,215.296)">
                                    <path d="M532.233,427.934C532.233,439.915 541.817,449.38 553.738,449.38C562.424,449.38 568.594,445.486 568.594,445.486C568.834,445.307 569.074,445.007 569.074,444.528L569.074,429.192C569.074,428.593 568.594,428.054 567.995,428.054L556.494,428.054C555.835,428.054 555.356,428.533 555.356,429.192L555.356,433.925C555.356,434.524 555.835,435.003 556.494,435.003L561.286,435.003L561.286,440.095C560.088,440.574 557.512,441.593 554.158,441.593C546.61,441.593 540.679,435.303 540.679,427.875C540.679,420.387 546.61,413.977 554.098,413.977C557.392,413.977 560.567,415.175 563.143,417.451C563.682,417.93 564.221,417.93 564.701,417.451L568.415,413.558C568.894,413.078 568.834,412.359 568.355,411.88C564.281,408.406 559.13,406.309 553.738,406.309C541.817,406.309 532.233,415.954 532.233,427.934Z" style="fill:white;fill-rule:nonzero;"/>
                                    <path d="M579.677,447.703C579.677,448.302 580.156,448.841 580.815,448.841L586.326,448.841C586.925,448.841 587.464,448.302 587.464,447.703L587.464,432.427L594.113,432.427L602.081,448.302C602.2,448.541 602.5,448.841 603.039,448.841L609.329,448.841C610.347,448.841 610.767,447.882 610.347,447.104L602.141,431.888C607.352,429.791 611.006,425.299 611.006,419.788C611.006,412.659 605.136,406.908 597.947,406.908L580.815,406.908C580.156,406.908 579.677,407.447 579.677,408.046L579.677,447.703ZM587.524,426.018L587.524,414.097L597.288,414.097C600.463,414.097 603.219,416.732 603.219,419.907C603.219,423.262 600.463,426.018 597.288,426.018L587.524,426.018Z" style="fill:white;fill-rule:nonzero;"/>
                                    <path d="M616.937,448.841L622.148,448.841C623.107,448.841 623.646,448.242 623.886,447.643L626.821,441.173L644.732,441.173L647.668,447.643C648.087,448.481 648.506,448.841 649.405,448.841L654.616,448.841C655.515,448.841 655.994,448.062 655.635,447.283L637.184,406.968C637.005,406.609 636.765,406.309 636.166,406.309L635.567,406.309C635.028,406.309 634.728,406.609 634.549,406.968L615.918,447.283C615.559,448.062 616.038,448.841 616.937,448.841ZM629.756,434.524L635.627,421.345L635.807,421.345L641.797,434.524L629.756,434.524Z" style="fill:white;fill-rule:nonzero;"/>
                                    <path d="M662.883,447.703C662.883,448.302 663.362,448.841 663.961,448.841L678.159,448.841C689.72,448.841 699.185,439.436 699.185,427.815C699.185,416.313 689.72,406.908 678.159,406.908L663.961,406.908C663.362,406.908 662.883,407.447 662.883,408.046L662.883,447.703ZM670.611,441.533L670.611,414.157L677.44,414.157C685.227,414.157 690.918,420.027 690.918,427.815C690.918,435.662 685.227,441.533 677.44,441.533L670.611,441.533Z" style="fill:white;fill-rule:nonzero;"/>
                                </g>
                            </g>
                        </g>
                    </g>
                </g>
                <g transform="matrix(3.01767,0,0,5.61912,-7473.08,-8967.38)">
                    <path d="M2891.89,1690.61C2891.89,1715.1 2911.48,1734.44 2935.84,1734.44C2953.59,1734.44 2966.2,1726.48 2966.2,1726.48C2966.69,1726.11 2967.18,1725.5 2967.18,1724.52L2967.18,1693.18C2967.18,1691.96 2966.2,1690.86 2964.97,1690.86L2941.47,1690.86C2940.12,1690.86 2939.14,1691.84 2939.14,1693.18L2939.14,1702.85C2939.14,1704.08 2940.12,1705.06 2941.47,1705.06L2951.26,1705.06L2951.26,1715.46C2948.81,1716.44 2943.55,1718.52 2936.69,1718.52C2921.27,1718.52 2909.15,1705.67 2909.15,1690.49C2909.15,1675.19 2921.27,1662.09 2936.57,1662.09C2943.3,1662.09 2949.79,1664.54 2955.06,1669.19C2956.16,1670.17 2957.26,1670.17 2958.24,1669.19L2965.83,1661.23C2966.81,1660.25 2966.69,1658.78 2965.71,1657.81C2957.38,1650.7 2946.86,1646.42 2935.84,1646.42C2911.48,1646.42 2891.89,1666.13 2891.89,1690.61Z" style="fill:url(#_Linear1);fill-rule:nonzero;"/>
                </g>
                <g transform="matrix(2.89697,0,0,5.39435,-6736.91,-8435.34)">
                    <path d="M2917.78,1651.15C2913.75,1639.71 2903.71,1632.97 2891.01,1632.97C2874.95,1632.97 2861.81,1646.36 2861.81,1662.43C2861.81,1678.49 2874.95,1691.63 2891.01,1691.63C2904.52,1691.63 2916.04,1682.35 2919.37,1669.84L2904.77,1664.78L2934.7,1650.28L2949.2,1680.2L2935.11,1675.31C2929.59,1694.43 2912.03,1708.2 2891.01,1708.2C2865.51,1708.2 2845.23,1687.93 2845.23,1662.43C2845.23,1636.92 2865.51,1616.39 2891.01,1616.39C2910.52,1616.39 2926.03,1626.49 2932.72,1643.55L2917.79,1651.15C2917.77,1651.1 2917.75,1651.04 2917.78,1651.15Z" style="fill:url(#_Linear2);"/>
                </g>
            </g>
        </g>
    </g>
    <defs>
        <linearGradient id="_Linear1" x1="0" y1="0" x2="1" y2="0" gradientUnits="userSpaceOnUse" gradientTransform="matrix(5.482e-15,-89.5278,76.578,4.68905e-15,2975.38,1735.95)"><stop offset="0" style="stop-color:rgb(58,163,255);stop-opacity:1"/><stop offset="1" style="stop-color:rgb(0,224,249);stop-opacity:1"/></linearGradient>
        <linearGradient id="_Linear2" x1="0" y1="0" x2="1" y2="0" gradientUnits="userSpaceOnUse" gradientTransform="matrix(7.57009e-15,-93.3878,105.747,4.89122e-15,2960.52,1709.78)"><stop offset="0" style="stop-color:rgb(58,163,255);stop-opacity:1"/><stop offset="1" style="stop-color:rgb(0,224,249);stop-opacity:1"/></linearGradient>
    </defs>
</svg>
