<?xml version="1.0" encoding="UTF-8" standalone="no"?>
<!DOCTYPE svg PUBLIC "-//W3C//DTD SVG 1.1//EN" "http://www.w3.org/Graphics/SVG/1.1/DTD/svg11.dtd">
<svg width="100%" height="100%" viewBox="0 0 1081 801" version="1.1" xmlns="http://www.w3.org/2000/svg" xmlns:xlink="http://www.w3.org/1999/xlink" xml:space="preserve" xmlns:serif="http://www.serif.com/" style="fill-rule:evenodd;clip-rule:evenodd;stroke-linejoin:round;stroke-miterlimit:2;">
    <g id="GradGo-Square-Logo--With-Hat----White---Blue" serif:id="GradGo Square Logo (With Hat) - White &amp; Blue" transform="matrix(0.5625,0,0,0.740741,0.68,0.5534)">
        <g>
            <rect x="0" y="0" width="1920" height="1080" style="fill:none;"/>
            <g transform="matrix(1.39358,0,0,1.88133,-377.41,-475.918)">
                <g transform="matrix(3.21443,0,0,1.80812,-5192.84,-1388.79)">
                    <g transform="matrix(1.38009,0,0,1.38009,997.584,575.552)">
                        <g id="GradClip-Logo---All-Black" serif:id="GradClip Logo - All Black">
                            <g>
                                <g>
                                    <g>
                                        <g>
                                            <path d="M532.233,427.934C532.233,439.915 541.817,449.38 553.738,449.38C562.424,449.38 568.594,445.486 568.594,445.486C568.834,445.307 569.074,445.007 569.074,444.528L569.074,429.192C569.074,428.593 568.594,428.054 567.995,428.054L556.494,428.054C555.835,428.054 555.356,428.533 555.356,429.192L555.356,433.925C555.356,434.524 555.835,435.003 556.494,435.003L561.286,435.003L561.286,440.095C560.088,440.574 557.512,441.593 554.158,441.593C546.61,441.593 540.679,435.303 540.679,427.875C540.679,420.387 546.61,413.977 554.098,413.977C557.392,413.977 560.567,415.175 563.143,417.451C563.682,417.93 564.221,417.93 564.701,417.451L568.415,413.558C568.894,413.078 568.834,412.359 568.355,411.88C564.281,408.406 559.13,406.309 553.738,406.309C541.817,406.309 532.233,415.954 532.233,427.934Z" style="fill:rgb(39,17,96);fill-rule:nonzero;"/>
                                            <path d="M579.677,447.703C579.677,448.302 580.156,448.841 580.815,448.841L586.326,448.841C586.925,448.841 587.464,448.302 587.464,447.703L587.464,432.427L594.113,432.427L602.081,448.302C602.2,448.541 602.5,448.841 603.039,448.841L609.329,448.841C610.347,448.841 610.767,447.882 610.347,447.104L602.141,431.888C607.352,429.791 611.006,425.299 611.006,419.788C611.006,412.659 605.136,406.908 597.947,406.908L580.815,406.908C580.156,406.908 579.677,407.447 579.677,408.046L579.677,447.703ZM587.524,426.018L587.524,414.097L597.288,414.097C600.463,414.097 603.219,416.732 603.219,419.907C603.219,423.262 600.463,426.018 597.288,426.018L587.524,426.018Z" style="fill:rgb(39,17,96);fill-rule:nonzero;"/>
                                            <path d="M616.937,448.841L622.148,448.841C623.107,448.841 623.646,448.242 623.886,447.643L626.821,441.173L644.732,441.173L647.668,447.643C648.087,448.481 648.506,448.841 649.405,448.841L654.616,448.841C655.515,448.841 655.994,448.062 655.635,447.283L637.184,406.968C637.005,406.609 636.765,406.309 636.166,406.309L635.567,406.309C635.028,406.309 634.728,406.609 634.549,406.968L615.918,447.283C615.559,448.062 616.038,448.841 616.937,448.841ZM629.756,434.524L635.627,421.345L635.807,421.345L641.797,434.524L629.756,434.524Z" style="fill:rgb(39,17,96);fill-rule:nonzero;"/>
                                            <path d="M662.883,447.703C662.883,448.302 663.362,448.841 663.961,448.841L678.159,448.841C689.72,448.841 699.185,439.436 699.185,427.815C699.185,416.313 689.72,406.908 678.159,406.908L663.961,406.908C663.362,406.908 662.883,407.447 662.883,408.046L662.883,447.703ZM670.611,441.533L670.611,414.157L677.44,414.157C685.227,414.157 690.918,420.027 690.918,427.815C690.918,435.662 685.227,441.533 677.44,441.533L670.611,441.533Z" style="fill:rgb(39,17,96);fill-rule:nonzero;"/>
                                            <g transform="matrix(0.221063,0,0,0.221063,101.153,187.924)">
                                                <path d="M2545.37,746.835C2546.18,747.148 2547.09,747.148 2547.9,746.835C2568.32,739.009 2828.45,639.269 2828.45,639.269L2828.45,667.801C2828.45,668.412 2828.07,668.96 2827.5,669.178C2810.42,675.729 2567.6,768.831 2547.9,776.382C2547.09,776.695 2546.18,776.695 2545.37,776.382C2525.67,768.831 2282.86,675.729 2265.77,669.178C2265.2,668.96 2264.83,668.412 2264.83,667.801L2264.83,639.269C2264.83,639.269 2524.95,739.008 2545.37,746.835Z" style="fill:rgb(39,17,96);"/>
                                            </g>
                                            <g transform="matrix(0.221063,0,0,0.221063,101.504,203.325)">
                                                <path d="M2543.78,746.832C2544.6,747.147 2545.5,747.149 2546.31,746.838C2564.85,739.781 2780.16,657.784 2780.16,657.784L2780.16,686.314C2780.16,686.926 2779.78,687.474 2779.21,687.692C2763.74,693.585 2564.12,769.602 2546.31,776.385C2545.5,776.696 2544.6,776.694 2543.78,776.379C2525.98,769.508 2326.3,692.43 2310.88,686.474C2310.31,686.255 2309.93,685.708 2309.93,685.099L2309.93,656.564C2309.93,656.564 2525.26,739.685 2543.78,746.832Z" style="fill:rgb(39,17,96);"/>
                                            </g>
                                            <g transform="matrix(0.221063,0,0,0.221063,89.7724,187.924)">
                                                <path d="M3025.79,706.774C3024.69,705.506 3024.09,703.887 3024.09,702.213C3024.03,681.557 3024.03,547.192 3024.03,547.192C3024.03,547.192 3012,552.006 3009.21,553.12C3008.87,553.258 3008.64,553.592 3008.64,553.964L3008.64,707.062C3008.64,709.663 3008.09,712.235 3007.02,714.606C3001.5,727.331 2998.2,748.671 2998.86,771.604C2998.86,771.614 2998.87,771.623 2998.88,771.628C2998.89,771.634 2998.89,771.636 2998.91,771.632C3000.28,771.168 3036.87,758.854 3037.9,758.509C3037.91,758.505 3037.92,758.492 3037.92,758.479C3037.21,734.459 3032.34,715.054 3025.79,706.774Z" style="fill:rgb(39,17,96);"/>
                                            </g>
                                            <g transform="matrix(0.221063,0,0,0.221063,530.178,67.1865)">
                                                <path d="M605.316,883.377C605.691,883.228 606.108,883.228 606.483,883.377C623.541,890.159 1009.27,1043.51 1051.22,1060.18C1051.83,1060.42 1052.22,1061 1052.22,1061.65C1052.22,1062.3 1051.83,1062.88 1051.22,1063.12C1009.27,1079.8 623.541,1233.14 606.483,1239.93C606.108,1240.07 605.691,1240.07 605.316,1239.93C588.257,1233.14 202.526,1079.8 160.574,1063.12C159.973,1062.88 159.578,1062.3 159.578,1061.65C159.578,1061 159.973,1060.42 160.574,1060.18C202.526,1043.51 588.257,890.159 605.316,883.377ZM603.022,1199.61C603.169,1199.55 603.336,1199.62 603.398,1199.77C603.461,1199.91 603.396,1200.08 603.253,1200.15C596.245,1203.4 587.26,1207.58 583.643,1209.26C582.612,1209.74 581.429,1209.78 580.373,1209.35C579.869,1209.15 579.446,1208.99 579.446,1208.99C579.446,1208.99 593.233,1203.5 603.022,1199.61ZM591.684,1181.66C591.83,1181.61 591.992,1181.68 592.054,1181.82C592.116,1181.96 592.055,1182.13 591.916,1182.2C582.707,1186.76 563.752,1196.14 558.062,1198.96C557.012,1199.48 555.79,1199.53 554.701,1199.09C552.804,1198.34 550.01,1197.23 550.01,1197.23C550.01,1197.23 579.366,1186.26 591.684,1181.66ZM585.53,1159.54C585.676,1159.48 585.84,1159.55 585.902,1159.69C585.964,1159.84 585.902,1160 585.761,1160.07C571.392,1167 536.89,1183.63 528.979,1187.45C527.937,1187.95 526.732,1187.99 525.657,1187.57C523.261,1186.61 519.161,1184.98 519.161,1184.98C519.161,1184.98 567.622,1166.4 585.53,1159.54ZM564.595,1142.36C564.741,1142.3 564.905,1142.37 564.967,1142.51C565.029,1142.66 564.967,1142.82 564.826,1142.89C548.843,1150.61 506.965,1170.84 498.167,1175.09C497.124,1175.59 495.917,1175.64 494.841,1175.21C492.093,1174.12 486.956,1172.07 486.956,1172.07C486.956,1172.07 544.914,1149.89 564.595,1142.36ZM557.686,1117.4C557.832,1117.35 557.998,1117.41 558.06,1117.56C558.123,1117.7 558.059,1117.87 557.917,1117.94C535.809,1128.34 475.115,1156.9 464.416,1161.93C463.381,1162.42 462.191,1162.46 461.128,1162.04C458.249,1160.89 452.648,1158.66 452.648,1158.66C452.648,1158.66 531.564,1127.66 557.686,1117.4ZM543.009,1097.06C543.155,1097 543.322,1097.07 543.384,1097.21C543.447,1097.36 543.382,1097.52 543.239,1097.59C517.134,1109.73 444.343,1143.57 432.578,1149.04C431.547,1149.52 430.365,1149.56 429.308,1149.13C426.395,1147.98 420.656,1145.69 420.656,1145.69C420.656,1145.69 512.716,1109.1 543.009,1097.06ZM563.257,1063.26C563.404,1063.2 563.571,1063.27 563.634,1063.42C563.697,1063.56 563.632,1063.73 563.488,1063.8C528.53,1079.9 417.997,1130.82 403.344,1137.57C402.316,1138.04 401.139,1138.07 400.087,1137.65C396.625,1136.28 388.91,1133.21 388.91,1133.21C388.91,1133.21 523.69,1079.13 563.257,1063.26ZM566.303,1037.76C566.45,1037.7 566.618,1037.77 566.681,1037.91C566.743,1038.06 566.678,1038.23 566.533,1038.3C523.682,1057.77 389.972,1118.54 373.821,1125.88C372.797,1126.34 371.628,1126.37 370.583,1125.96C367.228,1124.62 359.88,1121.7 359.88,1121.7C359.88,1121.7 518.614,1057.15 566.303,1037.76ZM571.636,1009.11C571.783,1009.05 571.951,1009.12 572.014,1009.26C572.076,1009.41 572.011,1009.58 571.867,1009.65C525.309,1030.89 361.473,1105.64 343.498,1113.84C342.473,1114.31 341.302,1114.34 340.255,1113.92C336.278,1112.34 326.442,1108.43 326.442,1108.43C326.442,1108.43 520.025,1030.02 571.636,1009.11ZM546.006,994.987C546.153,994.926 546.322,994.995 546.385,995.141C546.448,995.288 546.382,995.457 546.236,995.523C493.19,1019.36 329.31,1093.02 311.385,1101.07C310.364,1101.53 309.202,1101.56 308.163,1101.14C304.892,1099.84 297.827,1097.03 297.827,1097.03C297.827,1097.03 487.842,1018.9 546.006,994.987ZM534.94,974.61C535.087,974.549 535.256,974.618 535.318,974.764C535.381,974.91 535.315,975.08 535.17,975.145C480.744,999.675 300.677,1080.83 281.839,1089.32C280.818,1089.78 279.654,1089.81 278.613,1089.39C275.001,1087.96 266.631,1084.63 266.631,1084.63C266.631,1084.63 475.314,999.059 534.94,974.61ZM540.792,949.386C540.939,949.326 541.107,949.395 541.17,949.541C541.233,949.687 541.167,949.857 541.022,949.922C482.247,976.412 275.466,1069.61 255.224,1078.73C254.203,1079.19 253.039,1079.22 251.998,1078.8C248.068,1077.24 238.382,1073.39 238.382,1073.39C238.382,1073.39 476.657,975.684 540.792,949.386ZM559.66,916.117C559.807,916.056 559.975,916.125 560.038,916.271C560.101,916.417 560.035,916.587 559.89,916.652C495.08,945.862 248.199,1057.13 226.01,1067.13C224.989,1067.59 223.825,1067.62 222.784,1067.2C218.412,1065.46 206.748,1060.83 206.748,1060.83C206.748,1060.83 489.273,944.978 559.66,916.117Z" style="fill:rgb(39,17,96);"/>
                                            </g>
                                        </g>
                                    </g>
                                </g>
                            </g>
                        </g>
                    </g>
                    <g transform="matrix(0.171992,0,0,0.171992,1867.7,1047.4)">
                        <g transform="matrix(3.91564,0,0,3.91564,-10685.1,-5933.7)">
                            <path d="M2891.89,1690.61C2891.89,1715.1 2911.48,1734.44 2935.84,1734.44C2953.59,1734.44 2966.2,1726.48 2966.2,1726.48C2966.69,1726.11 2967.18,1725.5 2967.18,1724.52L2967.18,1693.18C2967.18,1691.96 2966.2,1690.86 2964.97,1690.86L2941.47,1690.86C2940.12,1690.86 2939.14,1691.84 2939.14,1693.18L2939.14,1702.85C2939.14,1704.08 2940.12,1705.06 2941.47,1705.06L2951.26,1705.06L2951.26,1715.46C2948.81,1716.44 2943.55,1718.52 2936.69,1718.52C2921.27,1718.52 2909.15,1705.67 2909.15,1690.49C2909.15,1675.19 2921.27,1662.09 2936.57,1662.09C2943.3,1662.09 2949.79,1664.54 2955.06,1669.19C2956.16,1670.17 2957.26,1670.17 2958.24,1669.19L2965.83,1661.23C2966.81,1660.25 2966.69,1658.78 2965.71,1657.81C2957.38,1650.7 2946.86,1646.42 2935.84,1646.42C2911.48,1646.42 2891.89,1666.13 2891.89,1690.61Z" style="fill:url(#_Linear1);fill-rule:nonzero;"/>
                        </g>
                        <g transform="matrix(3.75902,0,0,3.75902,-9729.91,-5562.95)">
                            <path d="M2917.78,1651.15C2913.75,1639.71 2903.71,1632.97 2891.01,1632.97C2874.95,1632.97 2861.81,1646.36 2861.81,1662.43C2861.81,1678.49 2874.95,1691.63 2891.01,1691.63C2904.52,1691.63 2916.04,1682.35 2919.37,1669.84L2904.77,1664.78L2934.7,1650.28L2949.2,1680.2L2935.11,1675.31C2929.59,1694.43 2912.03,1708.2 2891.01,1708.2C2865.51,1708.2 2845.23,1687.93 2845.23,1662.43C2845.23,1636.92 2865.51,1616.39 2891.01,1616.39C2910.52,1616.39 2926.03,1626.49 2932.72,1643.55L2917.79,1651.15C2917.77,1651.1 2917.75,1651.04 2917.78,1651.15Z" style="fill:url(#_Linear2);"/>
                        </g>
                    </g>
                </g>
            </g>
        </g>
    </g>
    <defs>
        <linearGradient id="_Linear1" x1="0" y1="0" x2="1" y2="0" gradientUnits="userSpaceOnUse" gradientTransform="matrix(5.482e-15,-89.5278,89.5278,5.482e-15,2975.38,1735.95)"><stop offset="0" style="stop-color:rgb(58,163,255);stop-opacity:1"/><stop offset="1" style="stop-color:rgb(0,224,249);stop-opacity:1"/></linearGradient>
        <linearGradient id="_Linear2" x1="0" y1="0" x2="1" y2="0" gradientUnits="userSpaceOnUse" gradientTransform="matrix(5.71041e-15,-93.2581,93.2581,5.71041e-15,2845.23,1709.65)"><stop offset="0" style="stop-color:rgb(58,163,255);stop-opacity:1"/><stop offset="1" style="stop-color:rgb(0,224,249);stop-opacity:1"/></linearGradient>
    </defs>
</svg>
